<svg xmlns="http://www.w3.org/2000/svg">
  <symbol id="arrow-left" viewBox="0 0 24 24">
    <path
      d="M17 5.856L14.11 3 5 12l9.11 9L17 18.145 10.78 12 17 5.856z"
      fill="currentColor"/>
  </symbol>
  <symbol id="cursor-default" viewBox="2 0 20 24">
    <path
      d="M12 13l4.5 8-3.4 2-4.6-8.1L4 21V1l16 12h-8z"
      fill="currentColor"/>
  </symbol>
  <symbol id="unlocked" viewBox="0 0 16 16">
    <path
      d="M3,8C2.723,8,2.486,8.098,2.292,8.292S2,8.723,2,9v6c0,0.277,0.098,0.514,0.292,0.708S2.723,16,3,16h10
        c0.277,0,0.514-0.098,0.708-0.292S14,15.277,14,15V9c0-0.277-0.098-0.514-0.292-0.708S13.277,8,13,8h-0.333V4.667
        c0-1.285-0.457-2.384-1.37-3.297S9.285,0,8,0S5.616,0.457,4.703,1.37s-1.37,2.012-1.37,3.297c0,0.181,0.066,0.337,0.198,0.469
        S3.819,5.333,4,5.333h0.667c0.181,0,0.337-0.065,0.469-0.197s0.197-0.288,0.197-0.469c0-0.736,0.261-1.365,0.781-1.886
        C6.636,2.261,7.264,2,8,2s1.364,0.261,1.886,0.781c0.521,0.521,0.781,1.149,0.781,1.886V8H3L3,8z"
      fill="currentColor" />
  </symbol>
  <symbol id="locked" viewBox="0 0 16 16">
    <path
      d="M5.333,7.333v-2c0-0.736,0.26-1.364,0.781-1.886c0.521-0.521,1.149-0.781,1.885-0.781
        c0.736,0,1.365,0.261,1.886,0.781c0.521,0.521,0.781,1.149,0.781,1.886v2H5.333L5.333,7.333z M14,8.333
        c0-0.278-0.098-0.514-0.292-0.708c-0.194-0.195-0.431-0.292-0.709-0.292h-0.333v-2c0-1.278-0.458-2.375-1.375-3.292
        C10.374,1.125,9.277,0.667,8,0.667c-1.278,0-2.375,0.459-3.292,1.375C3.791,2.958,3.333,4.055,3.333,5.333v2H2.999
        c-0.277,0-0.514,0.097-0.708,0.292C2.097,7.82,2,8.055,2,8.333v6c0,0.277,0.097,0.514,0.291,0.707
        c0.194,0.195,0.431,0.293,0.708,0.293h10c0.278,0,0.515-0.098,0.709-0.293c0.194-0.193,0.291-0.43,0.291-0.707L14,8.333L14,8.333z"
      fill="currentColor" />
  </symbol>
</svg>
