<svg xmlns="http://www.w3.org/2000/svg">
  <symbol id="refinery" viewBox="0 0 200 200">
    <path
      d="M200 101.844C199.572 45.532 154.992 0 100 0 45.007 0 .427 45.532 0 101.844c.232 39.782 23.206 74.12 56.41 90.417.23.123.463.245.707.318.745.402 1.526.72 2.307 1.074 6.116 2.697 12.55 4.834 19.25 6.348-24.622-19.75-48.645-50.366-5.688-110.327l.122-.17c27.71-38.697 25.83-75.392 18.506-82.57 4.346 4.25 48.523 42.042 6.19 101.222l-.16.146c-25.867 36.183-31.91 64.1-11.01 85.28.94.11 1.22 1.623-.782-3.492-4.163-10.633-4.626-24.988-.195-37.793 4.42-12.817 14.343-32.8 16.93-34.63-1.293.914-4.7 12.73-1.098 24.425 2.428 7.86 11.718 20.117 14.342 28.882 4.395 14.515-1.172 18.005-3.49 22.718 1.062-.11.12-.232 1.184-.428 13.086-11.463 15.283-23.682 2.82-46.924l-.074-.122C93.25 103.31 130.188 67.7 140.027 65.112c-4.518 1.196-18.812 37.146-2.405 65.784 15.735 27.465 1.966 58.47-13.99 68.59.233-.048.44-.084.673-.158.658-.158 1.293-.316 1.953-.524.83-.23 1.647-.464 2.44-.708.623-.158 1.245-.354 1.88-.562 1.1-.354 2.197-.745 3.248-1.1.244-.12.512-.206.744-.28 37.99-14.16 65.15-51 65.43-94.31z"
      fill="currentColor" />
  </symbol>
  <symbol id="arrow-left" viewBox="0 0 24 24">
    <path
      d="M17 5.856L14.11 3 5 12l9.11 9L17 18.145 10.78 12 17 5.856z"
      fill="currentColor"/>
  </symbol>
  <symbol id="cursor-default" viewBox="2 0 20 24">
    <path
      d="M12 13l4.5 8-3.4 2-4.6-8.1L4 21V1l16 12h-8z"
      fill="currentColor"/>
  </symbol>
  <symbol id="cursor-click" viewBox="0 0 24 24">
    <path
      d="M15,15.727l3.271,5.817L15.799,23l-3.345-5.893l-3.272,4.437V7l11.637,8.727H15z"
      fill="currentColor"/>
    <path
      d="M6.181,7.071c0-1.657,1.343-3,3-3c1.656,0,3,1.343,3,3c0,0.159-0.023,0.312-0.047,0.465l0.87,0.651
      c0.104-0.356,0.178-0.727,0.178-1.116c0-2.209-1.792-4-4-4s-4,1.791-4,4c0,1.861,1.278,3.412,3,3.857V9.887
      C7.019,9.474,6.181,8.375,6.181,7.071z"
      fill="currentColor"/>
  </symbol>
  <symbol id="cursor-dblclick" viewBox="0 0 24 24">
    <path
      d="M15,15.727l3.271,5.817L15.799,23l-3.345-5.893l-3.272,4.437V7l11.637,8.727H15z"
      fill="currentColor"/>
    <path
      d="M6.181,7.071c0-1.657,1.343-3,3-3c1.656,0,3,1.343,3,3c0,0.159-0.023,0.312-0.047,0.465l0.87,0.651
      c0.104-0.356,0.178-0.727,0.178-1.116c0-2.209-1.792-4-4-4s-4,1.791-4,4c0,1.861,1.278,3.412,3,3.857V9.887
      C7.019,9.474,6.181,8.375,6.181,7.071z"
      fill="currentColor"/>
    <path
      d="M3.182,7.04c0-3.313,2.687-6,6-6s6,2.687,6,6c0,0.846-0.177,1.65-0.493,2.379l0.815,0.611
      c0.43-0.908,0.678-1.919,0.678-2.991c0-3.866-3.134-7-7-7s-7,3.134-7,7c0,3.526,2.609,6.434,6,6.92v-1.011
      C5.345,12.473,3.182,10.012,3.182,7.04z"
      opacity="0.66"
      fill="currentColor"/>
  </symbol>
  <symbol id="unlocked" viewBox="0 0 16 16">
    <path
      d="M3,8C2.723,8,2.486,8.098,2.292,8.292S2,8.723,2,9v6c0,0.277,0.098,0.514,0.292,0.708S2.723,16,3,16h10
        c0.277,0,0.514-0.098,0.708-0.292S14,15.277,14,15V9c0-0.277-0.098-0.514-0.292-0.708S13.277,8,13,8h-0.333V4.667
        c0-1.285-0.457-2.384-1.37-3.297S9.285,0,8,0S5.616,0.457,4.703,1.37s-1.37,2.012-1.37,3.297c0,0.181,0.066,0.337,0.198,0.469
        S3.819,5.333,4,5.333h0.667c0.181,0,0.337-0.065,0.469-0.197s0.197-0.288,0.197-0.469c0-0.736,0.261-1.365,0.781-1.886
        C6.636,2.261,7.264,2,8,2s1.364,0.261,1.886,0.781c0.521,0.521,0.781,1.149,0.781,1.886V8H3L3,8z"
      fill="currentColor" />
  </symbol>
  <symbol id="locked" viewBox="0 0 16 16">
    <path
      d="M5.333,7.333v-2c0-0.736,0.26-1.364,0.781-1.886c0.521-0.521,1.149-0.781,1.885-0.781
        c0.736,0,1.365,0.261,1.886,0.781c0.521,0.521,0.781,1.149,0.781,1.886v2H5.333L5.333,7.333z M14,8.333
        c0-0.278-0.098-0.514-0.292-0.708c-0.194-0.195-0.431-0.292-0.709-0.292h-0.333v-2c0-1.278-0.458-2.375-1.375-3.292
        C10.374,1.125,9.277,0.667,8,0.667c-1.278,0-2.375,0.459-3.292,1.375C3.791,2.958,3.333,4.055,3.333,5.333v2H2.999
        c-0.277,0-0.514,0.097-0.708,0.292C2.097,7.82,2,8.055,2,8.333v6c0,0.277,0.097,0.514,0.291,0.707
        c0.194,0.195,0.431,0.293,0.708,0.293h10c0.278,0,0.515-0.098,0.709-0.293c0.194-0.193,0.291-0.43,0.291-0.707L14,8.333L14,8.333z"
      fill="currentColor" />
  </symbol>
  <symbol id="maximize" viewBox="0 0 16 16">
    <path
      d="M15 0H1C.448 0 0 .448 0 1v14c0 .553.448 1 1 1h14c.553 0 1-.447 1-1V1c0-.552-.447-1-1-1zm0 14.5c0 .275-.225.5-.5.5h-13c-.276 0-.5-.225-.5-.5v-13c0-.276.224-.5.5-.5h13c.275 0 .5.224.5.5v13z"
      fill="currentColor"/>
    <path
      d="M9.018 6.055l3.04.002L8.003 2l-4.06 4.057h3.044v3.886H3.942L8 14l4.058-4.057H9.016"
      fill="currentColor"/>
  </symbol>
  <symbol id="minimize" viewBox="0 0 16 16">
    <path
      d="M15 0H1C.448 0 0 .448 0 1v14c0 .553.448 1 1 1h14c.553 0 1-.447 1-1V1c0-.552-.447-1-1-1zm0 14.5c0 .275-.225.5-.5.5h-13c-.276 0-.5-.225-.5-.5v-13c0-.276.224-.5.5-.5h13c.275 0 .5.224.5.5v13z"
      fill="currentColor"
      style="opacity: 0.25"/>
    <path
      d="M9.018 7.492V4.447H6.984v3.048L3.94 7.492 8 11.554l4.062-4.062M16 15c0 .553-.447 1-1 1H1c-.552 0-1-.447-1-1v-1c0-.553.448-1 1-1h14c.553 0 1 .447 1 1v1z"
      fill="currentColor"/>
  </symbol>
  <symbol id="equalize" viewBox="0 0 16 16">
    <path
      d="M15 9H1c-.552 0-1 .447-1 1v5c0 .553.448 1 1 1h14c.553 0 1-.447 1-1v-5c0-.553-.447-1-1-1zm0 5.5c0 .276-.224.5-.5.5h-13c-.276 0-.5-.224-.5-.5v-4c0-.276.224-.5.5-.5h13c.276 0 .5.224.5.5v4zM15 0H1C.448 0 0 .447 0 1v5c0 .553.448 1 1 1h14c.553 0 1-.447 1-1V1c0-.553-.447-1-1-1zm0 5.5c0 .276-.224.5-.5.5h-13c-.276 0-.5-.224-.5-.5v-4c0-.276.224-.5.5-.5h13c.276 0 .5.224.5.5v4z"
      fill="currentColor"/>
  </symbol>
</svg>
