<svg xmlns="http://www.w3.org/2000/svg" width="200" height="200" viewBox="0 0 200 200"><path fill="#BE1E2D" d="M200 101.844C199.572 45.532 154.992 0 100 0 45.007 0 .427 45.532 0 101.844c.232 39.782 23.206 74.12 56.41 90.417.23.123.463.245.707.318.745.402 1.526.72 2.307 1.074 6.116 2.697 12.55 4.834 19.25 6.348-24.622-19.75-48.645-50.366-5.688-110.327l.122-.17c27.71-38.697 25.83-75.392 18.506-82.57 4.346 4.25 48.523 42.042 6.19 101.222l-.16.146c-25.867 36.183-31.91 64.1-11.01 85.28.94.11 1.22 1.623-.782-3.492-4.163-10.633-4.626-24.988-.195-37.793 4.42-12.817 14.343-32.8 16.93-34.63-1.293.914-4.7 12.73-1.098 24.425 2.428 7.86 11.718 20.117 14.342 28.882 4.395 14.515-1.172 18.005-3.49 22.718 1.062-.11.12-.232 1.184-.428 13.086-11.463 15.283-23.682 2.82-46.924l-.074-.122C93.25 103.31 130.188 67.7 140.027 65.112c-4.518 1.196-18.812 37.146-2.405 65.784 15.735 27.465 1.966 58.47-13.99 68.59.233-.048.44-.084.673-.158.658-.158 1.293-.316 1.953-.524.83-.23 1.647-.464 2.44-.708.623-.158 1.245-.354 1.88-.562 1.1-.354 2.197-.745 3.248-1.1.244-.12.512-.206.744-.28 37.99-14.16 65.15-51 65.43-94.31z"/></svg>